<?xml version="1.0" encoding="UTF-8"?>
<svg width="36px" height="36px" viewBox="0 0 36 36" version="1.1" xmlns="http://www.w3.org/2000/svg" xmlns:xlink="http://www.w3.org/1999/xlink">
    <!-- Generator: Sketch 61.2 (89653) - https://sketch.com -->
    <title>instagram (2)</title>
    <desc>Created with Sketch.</desc>
    <defs>
        <linearGradient x1="90.9553528%" y1="10.9382629%" x2="11.4700317%" y2="91.5382385%" id="linearGradient-1">
            <stop stop-color="#9C27B0" offset="0%"></stop>
            <stop stop-color="#F44634" offset="49.8838682%"></stop>
            <stop stop-color="#FFBF08" offset="100%"></stop>
        </linearGradient>
    </defs>
    <g id="Page-1" stroke="none" stroke-width="1" fill="none" fill-rule="evenodd">
        <g id="Artboard" transform="translate(-766.000000, -1600.000000)" fill="url(#linearGradient-1)" fill-rule="nonzero">
            <g id="instagram-(2)" transform="translate(766.000000, 1600.000000)">
                <path d="M18,0 C27.9396057,0 36,8.0603943 36,18 C36,27.9396057 27.9396057,36 18,36 C8.0603943,36 0,27.9396057 0,18 C0,8.0603943 8.0603943,0 18,0 Z M19.0620472,7.66487927 L16.9379528,7.66487847 C15.0770818,7.66829448 14.6834237,7.68332781 13.738678,7.72640993 C12.6383972,7.77667233 11.887207,7.95135502 11.2296753,8.20678711 C10.5400086,8.46633909 9.91516113,8.87310788 9.39907835,9.39907835 C8.87310787,9.91516113 8.46606445,10.5400086 8.20651247,11.2296753 C7.9510803,11.887207 7.77639769,12.6383972 7.72640993,13.738678 C7.68309241,14.6834237 7.66822722,15.0770818 7.66486405,16.9379528 L7.66486486,19.062048 C7.66823282,20.9229238 7.68313164,21.3166155 7.72668457,22.2615967 C7.77667233,23.3616028 7.95162966,24.1130676 8.20706175,24.7703247 C8.46661373,25.4599914 8.87338259,26.0848389 9.39907835,26.6009216 C9.91543577,27.1268921 10.5400086,27.5336609 11.22995,27.7932129 C11.887207,28.048645 12.6386719,28.2233277 13.738678,28.2735901 C14.6836592,28.3166722 15.0771491,28.3317055 16.9381401,28.3351215 L19.0623219,28.3351215 C20.9231929,28.3317055 21.3168509,28.3166722 22.2615967,28.2735901 C23.3616028,28.2233277 24.1130676,28.048645 24.7703247,27.7932129 C26.1587219,27.2562561 27.2562561,26.1587219 27.7932129,24.7703247 C28.048645,24.112793 28.2236023,23.3616028 28.2735901,22.261322 C28.3169076,21.3165763 28.3317728,20.9229182 28.3351359,19.0620472 L28.3351367,16.9379528 C28.3317784,15.0770818 28.3169468,14.6834237 28.2738648,13.738678 C28.2236023,12.6383972 28.0489197,11.887207 27.7932129,11.2296753 C27.5339355,10.5400086 27.1268921,9.91543577 26.6011963,9.39907835 C26.0848389,8.87310788 25.4599914,8.46606445 24.7703247,8.20651247 C24.112793,7.95135502 23.3616028,7.77667233 22.261322,7.72668457 C21.3165763,7.68336705 20.9229182,7.66830008 19.0620472,7.66487927 Z M18.8072118,9.52692345 C20.8385656,9.52926284 21.2034073,9.54255785 22.1767273,9.58694456 C23.1844482,9.6328125 23.7315674,9.80117796 24.0957641,9.94262695 C24.5448303,10.1082459 24.9507752,10.372467 25.2842102,10.7157898 C25.627533,11.0492248 25.8917541,11.4554443 26.057373,11.9042359 C26.1990967,12.2684326 26.3674621,12.8158264 26.4133301,13.8235473 C26.4577168,14.7966221 26.4707929,15.1614376 26.4730853,17.192984 L26.4730853,18.8074865 C26.4707929,20.8388402 26.4577168,21.203682 26.4133301,22.177002 C26.3671875,23.1847229 26.198822,23.731842 26.057373,24.0960388 C25.7096558,24.997467 24.9971924,25.7099304 24.0957641,26.0576477 C23.7315674,26.1993713 23.1841736,26.3677368 22.1764527,26.4136047 C21.2425363,26.456216 20.8689899,26.4699713 19.0430478,26.4730318 L16.9565191,26.4730318 C15.1308027,26.4699713 14.7574245,26.456216 13.8232727,26.4136047 C12.8155518,26.3677368 12.268158,26.1993713 11.9039612,26.0576477 C11.454895,25.8920288 11.0489502,25.6278076 10.7155152,25.2844848 C10.3721924,24.9510498 10.1082459,24.545105 9.94235231,24.0960388 C9.80090332,23.731842 9.63253786,23.1847229 9.58666992,22.177002 C9.54405868,21.2426148 9.53010155,20.8690011 9.52698341,19.0433953 L9.52698341,16.9570531 C9.53010155,15.1312791 9.54405868,14.7576991 9.58666992,13.8235473 C9.63253786,12.8158264 9.80090332,12.2684326 9.94235231,11.9042359 C10.1082459,11.4551697 10.372467,11.0492248 10.7157898,10.7157898 C11.0489502,10.372467 11.4551697,10.1082459 11.9042359,9.94262695 C12.268158,9.80117796 12.8155518,9.6328125 13.8232727,9.58666992 C14.7963475,9.54228321 15.161163,9.52920714 17.1927093,9.52691467 Z M18,12.6925049 C15.068573,12.6925049 12.6922302,15.068573 12.6922302,18 C12.6922302,20.931427 15.068573,23.3074951 18,23.3074951 C20.9311523,23.3074951 23.3074951,20.931427 23.3074951,18 C23.3074951,15.068573 20.9311523,12.6925049 18,12.6925049 Z M18,14.5546875 C19.902832,14.5546875 21.4453125,16.097168 21.4453125,18 C21.4453125,19.902832 19.902832,21.4453125 18,21.4453125 C16.097168,21.4453125 14.5546875,19.902832 14.5546875,18 C14.5546875,16.097168 16.097168,14.5546875 18,14.5546875 Z M23.517334,11.2423096 C22.8323364,11.2423096 22.2769775,11.7976684 22.2769775,12.482666 C22.2769775,13.1676636 22.8323364,13.7230225 23.517334,13.7230225 C24.2023316,13.7230225 24.7574158,13.1676636 24.7576904,12.482666 C24.7576904,11.7976684 24.2023316,11.2423096 23.517334,11.2423096 Z" id="Combined-Shape"></path>
            </g>
        </g>
    </g>
</svg>